<svg width="58" height="67" viewBox="0 0 58 67" fill="none" xmlns="http://www.w3.org/2000/svg">
    <g id="backcard_symbol" clip-path="url(#clip0)">
        <g id="Group">
            <path id="Vector" d="M28.0071 4.80455C27.7067 5.13087 27.1266 6.08913 25.8109 8.44593C24.9096 10.062 24.4642 10.7665 24.2518 10.9219C24.1223 11.0151 24.1067 11.0151 23.5525 10.9115C23.2417 10.8545 22.6409 10.7302 22.2109 10.637C21.4599 10.4764 21.3925 10.466 20.2944 10.4712C19.2429 10.4712 19.1031 10.4816 18.5177 10.6111C16.5753 11.0462 14.8763 11.963 13.4623 13.3356C12.2295 14.5374 11.5509 15.708 11.0744 17.4587C10.9086 18.07 10.6963 18.5569 10.5305 18.7019C10.4269 18.7951 10.3492 18.8055 9.81051 18.7951C9.479 18.79 8.41196 18.7019 7.43298 18.6035C4.9156 18.3445 3.94698 18.2823 3.57921 18.36C3.25289 18.4274 3.07159 18.5931 3.07159 18.8159C3.07159 18.9609 3.49634 19.7896 4.18525 20.981C5.5579 23.3482 6.00854 24.1458 6.32451 24.7674L6.66637 25.4511L6.17429 26.0624C5.05028 27.4661 4.73431 27.9219 4.31993 28.761C3.78123 29.8384 3.52224 30.8537 3.429 32.2781C3.30986 34.1532 3.60511 35.7537 4.33028 37.1989C4.83272 38.1986 5.34552 38.8875 6.43846 40.0478C6.79069 40.4155 7.16363 40.8351 7.27759 40.9853L7.4796 41.2495L7.26205 41.6846C7.14291 41.9177 6.60421 42.9277 6.06034 43.9274C4.85862 46.134 4.41316 47.0405 4.38208 47.3409C4.35618 47.5481 4.36654 47.5792 4.50122 47.662C4.63589 47.7553 4.85344 47.7605 8.1219 47.7864C10.0281 47.8019 11.6286 47.833 11.6752 47.8537C11.784 47.9055 11.841 48.123 12.0326 49.1849C12.2968 50.6715 12.6231 51.578 13.3017 52.7175C14.3998 54.5667 15.7466 55.8357 17.5491 56.7215C18.8648 57.3638 20.2115 57.6849 21.6256 57.6849C22.8118 57.6901 23.7027 57.4829 25.5001 56.7888C26.4118 56.4314 26.6293 56.4003 26.8158 56.592C27.0126 56.7888 27.4425 57.5761 28.5303 59.7516C29.0793 60.8498 29.6232 61.8857 29.7372 62.0618C29.9547 62.3985 30.1723 62.6005 30.3225 62.6005C30.6229 62.6005 31.0736 61.9272 32.3633 59.5186C33.5961 57.2291 34.2591 56.1362 34.4871 56.0326C34.6683 55.9497 34.9843 55.9549 35.6163 56.0533C36.3466 56.1724 38.1647 56.1724 38.9261 56.0533C41.4487 55.6596 43.5931 54.3906 45.1367 52.3705C46.0328 51.1998 46.5612 49.9981 46.9652 48.2266C47.1983 47.2114 47.3485 46.8022 47.5142 46.709C47.6696 46.6261 48.5813 46.6468 50.5444 46.7763C51.2592 46.8229 52.3418 46.8695 52.9582 46.8695C53.9942 46.8799 54.0874 46.8747 54.191 46.7815C54.248 46.7245 54.2998 46.6313 54.2998 46.5691C54.2998 46.2013 53.73 45.01 52.5127 42.8138C51.6581 41.2806 50.9381 39.9027 50.8397 39.6178C50.7931 39.4728 50.8034 39.4107 50.9588 39.0947C51.052 38.8979 51.3421 38.3902 51.6115 37.9655C52.404 36.6913 52.8184 35.733 53.0773 34.5727C53.5383 32.5008 53.2897 30.3719 52.3522 28.4192C51.9533 27.58 51.6218 27.1087 50.6998 26.0313C49.6949 24.871 49.726 24.9435 50.0161 24.3582C50.1404 24.094 50.7361 22.9804 51.3369 21.8771C52.7976 19.2043 53.1188 18.5569 53.0981 18.2927C53.0877 18.1425 53.0463 18.0648 52.9375 17.9819C52.808 17.8835 52.7044 17.8731 51.9015 17.8576C51.4094 17.8472 50.1611 17.8731 49.12 17.9197C46.903 18.0182 45.9603 18.0233 45.6754 17.9456C45.3905 17.8628 45.1574 17.6038 45.0797 17.2671C45.0072 16.9615 44.655 16.1172 44.3494 15.506C43.0078 12.8384 40.5785 10.9892 37.569 10.3521C36.9785 10.2226 36.818 10.2122 35.7302 10.2122C34.3938 10.2071 34.14 10.2433 32.8813 10.5955C31.9749 10.8545 31.8868 10.8545 31.6485 10.6214C31.431 10.4091 30.8508 9.27988 30.0324 7.48767C29.3021 5.87676 28.9447 5.19303 28.6701 4.8926C28.3904 4.58182 28.235 4.5611 28.0071 4.80455ZM28.9447 6.9438C29.53 8.10925 30.3536 9.97915 30.6074 10.7302C30.7369 11.1032 30.7421 11.1653 30.6851 11.3104C30.5918 11.5279 30.2396 11.8698 29.9651 12.0044C29.5196 12.2168 29.3435 12.0148 28.8929 10.7665C28.4578 9.54923 28.1936 9.0934 27.9191 9.0934C27.8517 9.0934 27.7585 9.13484 27.7171 9.18146C27.5927 9.32131 27.3597 9.81857 27.0281 10.6214C26.4895 11.9423 26.3392 12.1495 25.9922 12.0511C25.7125 11.9734 25.3758 11.761 25.2981 11.6108C25.1427 11.3207 25.4328 10.6266 26.5464 8.65312C27.5876 6.79876 28.2299 5.76799 28.3231 5.79389C28.349 5.79907 28.6339 6.32222 28.9447 6.9438ZM28.1625 11.1498C28.4215 11.502 28.7219 12.2272 28.753 12.5535C28.7737 12.7814 28.753 12.8746 28.6132 13.1595C28.4267 13.5377 28.09 13.8588 27.888 13.8588C27.5876 13.8588 27.2043 13.4859 27.0799 13.0715C27.023 12.8746 27.0281 12.7969 27.1058 12.4862C27.2716 11.8542 27.7533 10.9063 27.9139 10.9063C27.9553 10.9063 28.0641 11.0151 28.1625 11.1498ZM37.2064 11.0306C39.1644 11.357 40.8375 12.2375 42.2101 13.6568C43.9816 15.4956 44.7068 17.7229 44.5151 20.7324C44.4789 21.2918 44.4167 21.8253 44.3597 22.0532C44.1059 23.027 43.3445 24.3997 42.2308 25.8759C41.2985 27.1087 40.7909 28.0462 40.3972 29.2686C39.9414 30.6827 39.8378 32.1797 40.0553 34.1791C40.1589 35.1477 40.1797 35.5621 40.133 35.5621C40.1227 35.5621 39.8222 35.6087 39.4752 35.6657C39.123 35.7227 38.2217 35.8521 37.4654 35.9506C36.7092 36.049 36.0306 36.1422 35.9581 36.1526C35.8286 36.1785 35.8183 36.1578 35.6888 35.7278C35.4609 34.9716 35.435 34.6763 35.4091 32.8841C35.3676 30.2891 35.4816 29.134 35.8856 27.9115C36.186 27.0103 36.9112 25.5288 37.4603 24.7104C37.683 24.3686 38.1129 23.7988 38.403 23.4414C39.874 21.6492 40.1175 21.1312 40.1227 19.7379C40.1279 18.9143 40.0553 18.5413 39.7653 17.9094C39.527 17.3862 39.1955 16.9408 38.7397 16.5212C37.8695 15.7183 37.0459 15.4127 35.7561 15.4127C34.3731 15.4127 33.3268 15.8634 32.5291 16.8009C32.1613 17.236 31.9541 17.64 31.6123 18.5776C31.4465 19.0386 31.2756 19.453 31.229 19.4944C31.1564 19.5721 31.1254 19.5566 30.8975 19.3183C30.5556 18.9609 30.1671 18.2616 29.5145 16.8113C29.2088 16.1431 28.8825 15.449 28.7841 15.2729C28.5665 14.8792 28.5614 14.6824 28.7582 14.3716C29.1156 13.8122 30.0946 12.9161 30.9648 12.3411C32.0733 11.6108 33.4615 11.1239 34.8755 10.9581C35.3883 10.896 36.6522 10.9374 37.2064 11.0306ZM21.4029 11.2948C23.4075 11.5797 25.2981 12.5172 26.6915 13.9106C27.4218 14.6409 27.774 15.1589 28.3594 16.3451C28.6442 16.9304 29.0845 17.8265 29.3383 18.3393C29.877 19.4478 30.3588 20.116 31.2238 20.981C32.4359 22.1931 33.8499 23.0943 35.4453 23.6693C36.4191 24.0215 36.4968 24.1044 36.357 24.6845C36.2741 25.0109 35.5904 26.6684 35.2744 27.3003C34.9014 28.0514 34.6683 28.2327 34.1711 28.155C33.591 28.0618 31.3481 27.0206 30.4727 26.4353C29.7216 25.9329 28.9291 25.2647 28.0589 24.3997C26.4946 22.8405 25.9663 22.0532 24.7801 19.5307C24.4486 18.8159 24.0394 18.013 23.884 17.7436C23.2728 16.7129 22.6305 16.1638 21.6308 15.8116C21.232 15.6717 21.0869 15.651 20.5016 15.6303C19.9474 15.6147 19.7505 15.6303 19.3776 15.7183C18.0205 16.0395 16.9327 16.9356 16.3371 18.2202C16.047 18.8417 15.9486 19.2717 15.9486 19.945C15.9434 20.9085 16.2231 21.6233 17.0467 22.768C17.3057 23.1254 17.5284 23.4777 17.5491 23.5553C17.5802 23.6797 17.5647 23.7056 17.4455 23.7522C17.373 23.7781 17.1969 23.804 17.0674 23.804C16.451 23.804 13.4415 23.4362 12.5817 23.2601C12.1362 23.1669 11.9964 23.0736 11.8772 22.8043C11.525 22.0118 11.3852 19.4374 11.6183 18.158C11.8824 16.718 12.8303 15.0243 14.0476 13.8225C15.5238 12.3618 17.114 11.5901 19.3362 11.2534C19.6728 11.2016 20.9212 11.2275 21.4029 11.2948ZM36.7403 16.1897C37.6312 16.3296 38.6309 17.1272 39.0971 18.0803C39.3716 18.6346 39.4545 19.023 39.4545 19.7379C39.4545 20.4578 39.382 20.7738 39.066 21.3643C38.6827 22.0791 37.8798 22.9441 37.3877 23.1772C36.8957 23.4051 36.2741 23.2808 35.0931 22.7162C33.5754 21.9859 32.1354 20.9447 31.9749 20.4578C31.8661 20.1263 32.0474 19.1836 32.353 18.5102C32.7363 17.6711 33.3423 16.9252 33.9691 16.5264C34.3161 16.3037 34.4508 16.2519 34.8082 16.1897C35.1708 16.1327 36.3466 16.1327 36.7403 16.1897ZM21.1957 16.4798C21.724 16.6093 22.097 16.8268 22.5528 17.2671C23.4178 18.0907 24.1534 19.5048 24.1534 20.3335C24.1534 21.0328 23.0552 22.0377 21.3822 22.8716C20.3773 23.3689 19.7246 23.5968 19.2999 23.5968C18.9218 23.5968 18.7457 23.4828 18.093 22.8198C17.1503 21.8667 16.5909 20.7583 16.5909 19.857C16.5909 19.1266 17.2021 17.8421 17.8133 17.2826C18.1552 16.9667 18.8285 16.6248 19.3465 16.4953C19.8438 16.3762 20.7399 16.3658 21.1957 16.4798ZM51.8912 18.6864C52.0051 18.7382 52.0258 18.7744 51.9999 18.8884C51.9015 19.3804 49.9125 23.1979 49.3531 23.9697C49.2029 24.1769 49.1407 24.2184 48.9128 24.265C48.3896 24.3789 47.68 24.0785 47.3796 23.6227C47.2397 23.4051 47.3537 23.1876 48.1462 22.1775C48.6642 21.5145 49.006 20.8567 48.9335 20.6547C48.8869 20.52 48.8713 20.5148 48.5243 20.5148C48.3223 20.5148 47.9183 20.5459 47.6178 20.5822C47.3174 20.6184 46.7217 20.665 46.2918 20.6806L45.5097 20.7116L45.4786 20.4319C45.4579 20.2765 45.4423 19.9347 45.4423 19.6705C45.4423 18.9609 45.4838 18.935 46.8668 18.8055C48.6901 18.6346 51.627 18.562 51.8912 18.6864ZM7.24651 19.2976C8.45858 19.3908 9.03872 19.4581 10.1213 19.6135L10.5719 19.6809L10.603 19.9399C10.6186 20.0849 10.6341 20.4112 10.6341 20.6599C10.6341 21.0794 10.6237 21.126 10.4994 21.2503C10.3699 21.3798 10.3492 21.385 9.94518 21.3539C9.71209 21.3332 9.28735 21.2711 9.00246 21.2089C8.64505 21.1312 8.29283 21.095 7.87326 21.0898C7.32939 21.0846 7.25169 21.095 7.18953 21.183C7.12737 21.2659 7.12737 21.3021 7.19989 21.442C7.33457 21.7062 7.74377 22.2967 8.41196 23.1876L9.0439 24.0319L8.79009 24.2546C8.02348 24.9383 7.44852 24.9642 6.95644 24.3479C6.77515 24.1199 5.92048 22.7059 5.23675 21.499C4.4546 20.1263 4.15417 19.4633 4.22669 19.2769C4.27331 19.1577 5.60969 19.1681 7.24651 19.2976ZM47.5712 21.442C47.6489 21.6129 47.4935 21.9341 47.0947 22.4262C46.613 23.0167 46.2089 23.286 45.7894 23.286C45.4838 23.286 45.23 23.172 45.0487 22.9597C44.9347 22.825 44.9192 22.7628 44.9451 22.5764C45.0124 22.0895 45.3387 21.7217 45.8671 21.5456C46.2038 21.4368 46.8409 21.328 47.219 21.3229C47.4883 21.3177 47.5246 21.328 47.5712 21.442ZM25.0028 22.0014C25.1841 22.2086 25.7487 22.939 26.2564 23.6227C26.7588 24.3064 27.2302 24.9332 27.2923 25.0109C27.3597 25.0937 27.4166 25.1766 27.4166 25.2025C27.4166 25.2647 26.2874 26.2126 25.8731 26.5026C25.0546 27.0724 23.4489 27.8856 22.2886 28.3207C20.0665 29.1495 17.1192 29.3878 14.2859 28.9579C12.9805 28.761 12.6128 28.7455 12.0016 28.875C11.0899 29.0615 10.4217 29.3878 9.82605 29.9368C8.83153 30.8433 8.37571 32.0864 8.51556 33.5212C8.61398 34.5676 8.92994 35.2513 9.64993 35.9816C10.1627 36.4996 10.5978 36.7949 11.178 37.0176C12.0534 37.3595 12.8096 37.3905 13.8197 37.1316C14.866 36.8674 15.125 36.8052 15.5756 36.7275C16.1299 36.6343 16.8032 36.6239 16.8913 36.712C17.1762 36.9969 16.5494 38.644 15.6637 39.9131C15.4047 40.2912 14.7313 41.0889 14.4464 41.3582C14.26 41.5395 14.26 41.5395 13.5762 41.5862C11.2298 41.7416 9.48936 41.322 7.75931 40.1773C7.03414 39.7007 6.00854 38.6751 5.52164 37.9396C4.72913 36.7431 4.19043 35.3238 4.00396 33.9149C3.91072 33.2467 3.9677 31.8534 4.10755 31.237C4.47532 29.6053 5.25747 28.2171 6.51616 26.9481C7.89398 25.5599 9.38577 24.7415 11.178 24.3893C11.5354 24.322 11.9031 24.2961 12.7837 24.2961C13.7731 24.2961 14.0528 24.3168 14.8815 24.4411C16.5805 24.7001 18.0567 24.6897 19.2585 24.4152C20.6415 24.0992 22.4647 23.2135 23.7131 22.25C24.2207 21.8564 24.5574 21.6285 24.6299 21.6285C24.6506 21.6285 24.8164 21.7994 25.0028 22.0014ZM9.59814 22.017C10.5357 22.1568 10.8672 22.307 11.0537 22.68C11.1883 22.9338 11.1676 23.3326 11.0174 23.5036C10.7843 23.7677 10.2819 23.8765 9.94518 23.7366C9.72763 23.6434 9.26145 23.1358 8.92994 22.6282C8.62434 22.1672 8.59326 22.0066 8.81081 21.9755C9.06462 21.9393 9.10088 21.9393 9.59814 22.017ZM45.4682 23.9853C46.4938 24.2857 48.2912 25.0886 49.0371 25.5858C50.6687 26.6684 51.9896 28.7869 52.4972 31.1178C52.5904 31.5633 52.6112 31.8171 52.6112 32.6355C52.6163 33.4798 52.6008 33.6974 52.492 34.1635C52.1087 35.8988 51.3214 37.3646 50.1041 38.6389C49.3945 39.3796 48.7781 39.8406 47.6696 40.4673C46.4368 41.1614 46.0743 41.2236 43.1891 41.2132C40.8996 41.208 38.8847 41.2754 38.3719 41.3686C37.1961 41.5862 35.435 42.4149 34.1504 43.3576C33.824 43.5959 33.4407 43.8549 33.3061 43.9326L33.0523 44.0673L32.9228 43.9481C32.4307 43.4871 30.5763 40.7004 30.5763 40.4155C30.5763 40.0426 31.9282 39.0688 33.8137 38.095C35.6318 37.1523 36.6419 36.8208 38.2631 36.6239C39.8326 36.4375 40.9773 36.4789 42.3396 36.7586C43.0026 36.8985 43.2513 36.9244 43.8107 36.9244C44.6395 36.9244 45.0746 36.8208 45.8567 36.4375C46.3229 36.2044 46.4627 36.106 46.8409 35.7227C47.2967 35.2565 47.5401 34.8991 47.7525 34.3811C48.0115 33.7336 48.0581 33.4643 48.0581 32.5837C48.0529 31.786 48.0478 31.7394 47.8872 31.2629C47.6748 30.6568 47.3951 30.1751 47.0066 29.7555C46.3488 29.0356 45.5822 28.559 44.8363 28.3933C44.6343 28.3466 43.9713 28.2741 43.3704 28.2327C42.7385 28.1861 42.1998 28.1187 42.1014 28.0825C41.889 27.9892 41.8372 27.8442 41.9408 27.6267C42.0547 27.3884 44.251 24.4618 44.5669 24.1251C44.7068 23.9801 44.8674 23.8558 44.9192 23.8558C44.971 23.8558 45.2196 23.9128 45.4682 23.9853ZM28.4681 26.1142C28.5614 26.1608 28.9602 26.4146 29.3591 26.6788C30.6695 27.5438 32.2442 28.3777 33.2802 28.7455C34.0675 29.0252 34.3679 29.1961 34.4197 29.3774C34.4456 29.4603 34.4871 30.3564 34.513 31.3665C34.5699 33.4798 34.6373 34.5468 34.7564 35.1581C34.8704 35.7796 34.8963 36.2613 34.8237 36.4426C34.746 36.6291 34.4145 36.8518 33.6842 37.2196C32.9694 37.577 32.3892 37.9292 30.9596 38.8771C30.2707 39.3381 29.7424 39.6489 29.6906 39.6386C29.6439 39.6282 29.157 39.3019 28.6028 38.9186C27.3182 38.0225 26.5257 37.5459 25.1168 36.8208C24.4952 36.4996 23.9514 36.2095 23.9099 36.1733C23.7701 36.0593 23.7442 35.8832 23.6354 34.3086C23.4903 32.1227 23.4334 31.6876 23.1381 30.4496C22.8947 29.424 22.8791 29.2376 22.9983 29.1288C23.0501 29.0822 23.5473 28.7973 24.1016 28.4917C25.4069 27.7717 26.0699 27.378 26.7692 26.8808C27.5876 26.3058 28.0434 26.0313 28.1832 26.0313C28.2454 26.0313 28.3749 26.0675 28.4681 26.1142ZM43.8107 28.932C45.059 29.077 46.038 29.5691 46.6181 30.346C47.8561 32.0139 47.623 34.3138 46.1002 35.4429C45.4889 35.8936 44.7431 36.1681 43.9661 36.2147C43.6087 36.2406 43.4274 36.2147 42.6193 36.0334C42.1065 35.9143 41.6093 35.7796 41.5057 35.7278C41.3606 35.6501 41.2778 35.5414 41.0758 35.1425C40.6976 34.3863 40.6562 34.1325 40.6562 32.4024C40.651 30.8433 40.6925 30.4186 40.8893 29.885C41.0084 29.5639 41.2829 29.2272 41.5212 29.1029C41.9201 28.9009 42.868 28.8284 43.8107 28.932ZM13.5918 29.6053C14.664 29.7141 15.9434 29.9783 16.2076 30.1492C16.451 30.3046 16.9379 31.641 17.1917 32.8531C17.3264 33.5212 17.4196 34.7799 17.3471 35.0596C17.3005 35.2513 17.0726 35.4999 16.8447 35.6191C16.3578 35.8625 13.1463 36.5462 12.4626 36.5462C12.0793 36.5462 11.4888 36.4116 11.1158 36.2406C9.89339 35.6657 9.17339 34.4588 9.17339 32.9929C9.17857 31.439 9.92964 30.315 11.2919 29.8125C11.9757 29.5639 12.6024 29.5069 13.5918 29.6053ZM21.8639 29.683C22.1177 29.8954 22.4803 31.1437 22.6823 32.4905C22.7963 33.2571 22.8377 35.3652 22.7548 36.1629C22.444 39.2294 21.1957 41.8969 18.6939 44.8598C17.5232 46.248 17.0985 47.1182 17.1037 48.1489C17.1037 49.5734 18.1241 51.2413 19.4397 51.9716C19.8075 52.1788 20.5327 52.3808 21.1284 52.4482C22.4596 52.5932 23.6561 52.1011 24.7128 50.9771C25.2877 50.3607 25.4846 49.9049 26.044 47.8641C26.3807 46.6416 26.4998 46.2842 26.562 46.2842C26.5827 46.2842 26.6656 46.3308 26.7484 46.393C27.0592 46.6157 27.4684 47.4911 28.1677 49.4439C28.3853 50.0551 28.7064 50.858 28.8773 51.2205C29.1311 51.7592 29.1933 51.9405 29.1985 52.1581C29.2037 52.6398 28.8204 53.2199 27.945 54.0798C26.7329 55.2608 25.2152 56.2346 24.0757 56.5609C23.1174 56.8354 22.8066 56.8717 21.5894 56.8717C20.6052 56.8717 20.3773 56.8561 19.9059 56.7577C17.4196 56.2242 15.3736 54.7894 14.0424 52.645C13.4674 51.7178 12.9961 50.5213 12.8407 49.6045C12.6698 48.584 12.763 46.9369 13.0686 45.7403C13.426 44.3159 14.0113 43.2592 15.3218 41.6742C16.1972 40.6175 16.6686 39.9235 17.057 39.1154C17.6527 37.8723 17.8547 37.2559 17.9428 36.3546C18.0153 35.6605 17.9739 32.7132 17.8858 32.2729C17.8547 32.102 17.7356 31.6772 17.6216 31.325C17.5077 30.978 17.4041 30.5895 17.3885 30.4652C17.3419 30.1596 17.4093 30.1285 18.3209 30.0456C18.7198 30.0042 19.4605 29.8902 19.9577 29.7918C21.3925 29.5017 21.636 29.4914 21.8639 29.683ZM24.1534 37.2559C24.49 37.3646 25.7539 37.9914 26.3548 38.3488C28.8566 39.8354 30.8664 42.0057 32.0992 44.549C32.498 45.3622 32.7207 45.9216 33.1196 47.0974C33.8603 49.2781 34.4042 50.0447 35.6318 50.656C36.2844 50.9771 36.5124 51.0237 37.4913 51.0185C38.7863 51.0185 39.3768 50.8321 40.1434 50.1846C41.4073 49.1227 41.832 48.1593 41.7491 46.5432C41.687 45.2742 41.3451 44.6008 40.0553 43.166C39.8119 42.8966 39.5477 42.5807 39.4648 42.4564C39.3302 42.2647 39.3198 42.2285 39.3871 42.1611C39.5529 41.9954 40.4335 41.9436 41.3503 42.0368C41.6196 42.0679 42.5002 42.1249 43.3082 42.1663C45.002 42.2492 45.1315 42.2803 45.3957 42.6998C45.691 43.166 46.1002 44.5179 46.2452 45.5124C46.4472 46.9058 46.2607 48.6203 45.7738 49.8479C45.1523 51.4122 44.0179 52.8729 42.697 53.8053C41.7439 54.4838 40.2884 55.1209 39.2421 55.3178C37.8125 55.5871 35.9426 55.5301 34.9118 55.1883C34.3783 55.0121 33.2802 54.4476 32.6638 54.0383C31.5346 53.2821 30.7576 52.5621 30.1308 51.6867C29.6284 50.9823 29.4005 50.5006 28.8411 48.957C28.1781 47.1285 27.8828 46.4914 27.2509 45.5383C26.4377 44.3159 25.3344 43.2696 24.1016 42.56C23.9151 42.4512 23.5059 42.2181 23.1847 42.0368C22.3974 41.5965 22.2368 41.4567 22.2368 41.2288C22.2368 41.1303 22.3145 40.8558 22.413 40.6227C22.5942 40.1773 22.9102 39.2397 23.2728 38.0484C23.3919 37.6651 23.5214 37.2973 23.5629 37.23C23.6457 37.1057 23.6872 37.1057 24.1534 37.2559ZM50.1041 40.3586C50.4046 40.6331 50.7672 41.1303 50.9381 41.5085C51.0158 41.6846 51.425 42.4305 51.8446 43.166C52.6267 44.5335 53.2638 45.7766 53.2638 45.932C53.2638 46.1806 52.8235 46.248 51.6633 46.1806C50.8656 46.1288 48.1669 45.9061 47.5868 45.8439L47.3226 45.8129L47.074 45.2586C46.7684 44.5801 46.7269 44.3159 46.8978 44.1916C47.0532 44.0828 47.535 44.0828 48.3689 44.1864C49.1252 44.2796 49.928 44.2848 50.1041 44.1968C50.1767 44.1605 50.2388 44.088 50.2492 44.031C50.2699 43.8963 49.9021 43.3525 49.3479 42.6895C48.8662 42.1197 48.5139 41.6121 48.4621 41.4256C48.4207 41.2598 48.5243 41.0837 48.8558 40.7574C49.12 40.5036 49.6639 40.1721 49.8296 40.1721C49.8659 40.1721 49.9902 40.255 50.1041 40.3586ZM47.5142 41.8037C47.7732 41.9798 48.602 42.8448 48.7004 43.0365C48.7574 43.1453 48.7626 43.1919 48.716 43.2385C48.5554 43.3991 47.4832 43.3628 46.9911 43.1815C46.5094 43.0002 46.1157 42.5962 46.1157 42.2751C46.1157 42.0782 46.1623 42.0005 46.3591 41.8503C46.7528 41.5499 47.1258 41.5344 47.5142 41.8037ZM9.33915 41.8555C9.78461 42.0057 10.1317 42.2026 10.2456 42.3579C10.4424 42.6428 10.2715 42.9951 9.46864 43.974C8.85225 44.7251 8.71757 44.9375 8.71757 45.1706C8.71757 45.4917 9.32879 45.528 11.2039 45.3001C11.6752 45.2431 12.0896 45.1965 12.1311 45.1965C12.188 45.1965 12.1984 45.3104 12.1777 45.787C12.1518 46.4293 12.0948 46.5846 11.8358 46.7193C11.5302 46.8747 11.3075 46.9006 8.32909 47.0923C5.73401 47.258 5.62005 47.2528 5.49574 46.9835C5.3766 46.7193 5.67703 46.0408 6.79069 44.0828C7.56766 42.7154 7.99758 42.0731 8.27211 41.8762C8.5311 41.6846 8.82117 41.6794 9.33915 41.8555ZM13.3379 42.3269C13.5192 42.4201 13.5244 42.5496 13.3535 42.9951C13.224 43.3473 12.8459 43.9689 12.6749 44.1191C12.3693 44.3832 10.2715 44.6629 10.1886 44.4454C10.0643 44.1243 11.2298 42.6428 11.8151 42.389C12.2657 42.187 13.0116 42.1559 13.3379 42.3269ZM22.444 42.4874C23.5991 42.8759 25.5415 44.3107 25.9249 45.0566C26.0543 45.3156 26.0284 45.5124 25.7539 46.3101C25.6451 46.6364 25.4224 47.3772 25.267 47.9521C24.8371 49.5216 24.547 50.1276 23.9203 50.7647C23.5111 51.1843 23.076 51.4485 22.4958 51.6298C21.9261 51.8059 21.0817 51.7955 20.5016 51.6039C19.4397 51.2516 18.5747 50.4436 18.1759 49.4283C17.9739 48.9259 17.9221 48.5633 17.9531 47.9159C17.9998 46.911 18.2639 46.4137 19.59 44.8442C20.0043 44.347 20.5171 43.7202 20.7243 43.4457C21.5997 42.2803 21.6826 42.2336 22.444 42.4874ZM38.1129 42.5859C38.8174 43.0728 40.1589 44.4195 40.6355 45.1239C40.8737 45.471 40.9255 45.6678 40.9877 46.3464C41.1224 47.9262 40.6251 48.9622 39.3198 49.8065C38.6723 50.226 38.3926 50.2934 37.481 50.2623C36.8905 50.2364 36.6936 50.2105 36.357 50.0965C35.0879 49.6666 34.4456 48.8068 33.7619 46.6209C33.4977 45.7818 33.4252 45.2742 33.5236 44.9737C33.7619 44.2589 37.0873 42.2233 37.7503 42.3838C37.8073 42.3994 37.9731 42.4874 38.1129 42.5859ZM30.2552 53.0697C30.597 53.2251 30.9078 53.5048 31.0684 53.8053C31.2652 54.1627 31.2704 54.5926 31.0787 55.1002C30.9234 55.5301 30.6436 56.0067 30.4883 56.1103C30.3795 56.1828 30.3536 56.1828 30.2448 56.1051C29.9599 55.9238 29.4937 54.6755 29.4523 53.9969C29.416 53.4479 29.4834 53.2044 29.7165 53.0646C29.9185 52.9402 29.9755 52.9454 30.2552 53.0697ZM32.5343 54.9189C32.9538 55.1675 33.3734 55.6026 33.3734 55.7891C33.3734 56.3175 31.0062 60.7772 30.4468 61.3056L30.3173 61.4247L30.1257 61.2175C30.0169 61.1036 29.7683 60.7203 29.5766 60.3629C28.9809 59.2647 27.8362 56.7888 27.6031 56.1103C27.5306 55.8927 27.5306 55.8409 27.5927 55.6907C27.7481 55.3178 28.3542 54.8568 28.6494 54.893C28.8307 54.9137 29.0845 55.3437 29.4419 56.2501C29.9133 57.4363 30.1205 57.7833 30.3432 57.7833C30.5711 57.7833 30.7369 57.4984 31.3274 56.0999C31.7832 55.0225 31.949 54.7273 32.0992 54.7273C32.1613 54.7273 32.3582 54.8153 32.5343 54.9189Z" fill="#2787B0"/>
        </g>
    </g>
    <defs>
        <clipPath id="clip0">
            <rect width="56.408" height="66.3013" fill="white" transform="translate(0.637024 0.339569)"/>
        </clipPath>
    </defs>
</svg>
