<svg width="27" height="26" viewBox="0 0 27 26" fill="none" xmlns="http://www.w3.org/2000/svg">
<path d="M24.4536 11.375C24.4536 17.4731 19.6479 22.438 13.6203 22.7229V26L7.2102 21.0849L13.6203 16.25V19.4729C17.8474 19.1912 21.2036 15.6726 21.2036 11.375C21.2036 6.89433 17.5593 3.25 13.0786 3.25C8.59795 3.25 4.95362 6.89433 4.95362 11.375C4.95362 13.9544 6.16586 16.2522 8.04545 17.7407L5.39236 19.7416C3.13037 17.6627 1.70362 14.6889 1.70362 11.375C1.70362 5.09383 6.79745 0 13.0786 0C19.3598 0 24.4536 5.09383 24.4536 11.375Z" fill="white"/>
</svg>
