
<svg width="25" height="25" viewBox="0 0 25 25" fill="none" xmlns="http://www.w3.org/2000/svg">
<path d="M9.96362 10.4445C9.37378 10.2726 8.81047 10.1262 8.27368 10.0051C8.05246 9.30492 7.94079 8.57478 7.94263 7.84052C7.94263 4.6369 10.0017 2.03973 12.5417 2.03973C15.0818 2.03973 17.1389 4.63446 17.1389 7.83856C17.1404 8.53838 17.0391 9.23462 16.8381 9.90497C16.1702 10.0449 15.4586 10.2248 14.7034 10.4445C13.6292 10.758 12.7605 11.0685 12.3323 11.2282C11.9065 11.0685 11.0378 10.758 9.96362 10.4445ZM3.71607 14.592C3.18335 14.592 2.6626 14.75 2.21966 15.0459C1.77673 15.3419 1.43152 15.7626 1.22768 16.2548C1.02384 16.7469 0.970531 17.2885 1.07449 17.811C1.17846 18.3334 1.43502 18.8134 1.81175 19.19C2.18847 19.5667 2.66842 19.8231 3.19092 19.927C3.71341 20.0309 4.25497 19.9775 4.74711 19.7735C5.23925 19.5696 5.65986 19.2243 5.95575 18.7813C6.25164 18.3384 6.40952 17.8176 6.40942 17.2849C6.4093 16.5706 6.12547 15.8857 5.62039 15.3807C5.1153 14.8757 4.4303 14.592 3.71607 14.592ZM21.2839 14.592C20.7512 14.592 20.2305 14.75 19.7875 15.0459C19.3446 15.3419 18.9994 15.7626 18.7956 16.2548C18.5917 16.7469 18.5384 17.2885 18.6424 17.811C18.7463 18.3334 19.0029 18.8134 19.3796 19.19C19.7563 19.5667 20.2363 19.8231 20.7588 19.927C21.2813 20.0309 21.8228 19.9775 22.315 19.7735C22.8071 19.5696 23.2277 19.2243 23.5236 18.7813C23.8195 18.3384 23.9774 17.8176 23.9773 17.2849C23.9772 16.5707 23.6934 15.8858 23.1884 15.3808C22.6834 14.8759 21.9986 14.5921 21.2844 14.592H21.2839ZM17.8098 17.2849C17.8106 16.6131 18.0058 15.9559 18.372 15.3927C18.7382 14.8294 19.2596 14.3843 19.8733 14.111V10.3244C16.7244 10.3244 12.3323 12.0646 12.3323 12.0646C12.3323 12.0646 7.94019 10.3244 4.79126 10.3244V13.9826C5.48826 14.2097 6.09555 14.6515 6.52619 15.2448C6.95684 15.838 7.18876 16.5523 7.18876 17.2853C7.18876 18.0184 6.95684 18.7327 6.52619 19.3259C6.09555 19.9192 5.48826 20.361 4.79126 20.5881V20.9299C7.94019 20.9299 12.3323 22.9601 12.3323 22.9601C12.3323 22.9601 16.7263 20.9313 19.8733 20.9313V20.4587C19.2596 20.1854 18.7382 19.7403 18.372 19.1771C18.0058 18.6138 17.8106 17.9566 17.8098 17.2849Z" fill="white"/>
</svg>
